<svg xmlns="http://www.w3.org/2000/svg" width="18" height="17.05" viewBox="1090 69.467 18 17.05"><g data-name="shopping-cart"><path d="M1094.006 69.5H1090v1.71h2.69l2.315 10.834h.011v.276h10.868v-.212l1.834-8.257.282-.932h-13.272l-.477-2.232-.245-1.187Zm11.867 5.128h-10.78l1.278 5.983h8.174l1.328-5.983Z" fill="#111" fill-rule="evenodd" data-name="Path 1"/><path d="M1105.048 84.828c0 .923-.748 1.672-1.672 1.672a1.672 1.672 0 0 1-1.672-1.672c0-.923.749-1.672 1.672-1.672a1.672 1.672 0 0 1 1.672 1.672Zm-7.524 1.672c.924 0 1.672-.749 1.672-1.672a1.672 1.672 0 0 0-1.672-1.672 1.672 1.672 0 0 0-1.672 1.672c0 .923.749 1.672 1.672 1.672Z" fill="#111" fill-rule="evenodd" data-name="Path 2"/></g></svg>