<svg xmlns="http://www.w3.org/2000/svg" width="7.083" height="7.083" viewBox="7.467 8.367 7.083 7.083"><path d="M14.532 11.911h-1.766A1.766 1.766 0 0 1 11 13.677a1.766 1.766 0 0 1-1.766-1.766H7.468A3.532 3.532 0 0 0 11 15.444a3.532 3.532 0 0 0 3.532-3.533ZM9.234 9.262a.883.883 0 1 1-1.766 0 .883.883 0 0 1 .883-.883c.487 0 .883.395.883.883Zm4.415.883a.883.883 0 0 0 .883-.883.883.883 0 0 0-.883-.883.883.883 0 0 0-.883.883.883.883 0 0 0 .883.883Z" fill="#111" fill-rule="evenodd" data-name="Path 10298"/></svg>