<svg xmlns="http://www.w3.org/2000/svg" width="18.033" height="18.033" viewBox="995.983 105.983 18.033 18.033"><path d="m1008.334 119.68 4.04 4.041a.948.948 0 0 0 .486.26.952.952 0 0 0 .812-.214.966.966 0 0 0 .05-.046.952.952 0 0 0 0-1.347l-4.041-4.04a1.06 1.06 0 0 0-.043-.04 7.62 7.62 0 0 0-11.406-10.063 7.584 7.584 0 0 0-2.084 3.888 7.612 7.612 0 0 0 2.084 6.888 7.584 7.584 0 0 0 3.887 2.083 7.618 7.618 0 0 0 6.174-1.453.942.942 0 0 0 .04.043Zm.889-7.186a5.688 5.688 0 0 0-1.563-2.916 5.714 5.714 0 0 0-8.081 0 5.798 5.798 0 0 0-.276.295 5.71 5.71 0 0 0-1.287 4.871 5.688 5.688 0 0 0 1.563 2.916 5.715 5.715 0 0 0 8.081 0 5.798 5.798 0 0 0 .275-.295 5.71 5.71 0 0 0 1.288-4.871Z" fill="#111" fill-rule="evenodd" data-name="search"/></svg>